<?xml version="1.0" encoding="iso-8859-1"?>
<!-- Generator: Adobe Illustrator 19.0.0, SVG Export Plug-In . SVG Version: 6.00 Build 0)  -->
<svg version="1.1" id="Capa_1" xmlns="http://www.w3.org/2000/svg" xmlns:xlink="http://www.w3.org/1999/xlink" x="0px" y="0px"
	 viewBox="0 0 512.001 512.001" style="enable-background:new 0 0 512.001 512.001;" xml:space="preserve">
<circle style="fill:#4A5370;" cx="256.001" cy="256.001" r="256"/>
<path id="SVGCleanerId_0" style="fill:#13BFBE;" d="M399.881,156.039c-8.331-35.437-26.314-69.057-53.941-96.684
	c21.04,21.04,34.737,46.646,41.081,73.635c11.844,50.308-1.86,105.401-41.089,144.63c-13.395,13.395-28.635,23.812-44.904,31.245
	c-42.176,19.298-91.271,18.578-132.94-2.139c-14.586-7.248-28.26-16.952-40.412-29.106c-16.651-16.652-28.701-36.17-36.156-56.961
	c-19.511-54.461-7.462-117.678,36.156-161.297c16.32-16.32,35.391-28.23,55.711-35.715c54.74-20.144,118.604-8.241,162.553,35.707
	C288.233,1.649,204.378-13.98,132.502,12.47c-26.68,9.827-51.72,25.465-73.15,46.894C2.081,116.635-13.741,199.64,11.879,271.15
	c9.788,27.299,25.609,52.927,47.473,74.792c15.957,15.957,33.911,28.698,53.062,38.216c54.713,27.202,119.176,28.148,174.554,2.809
	c21.362-9.759,41.373-23.437,58.96-41.025C397.439,294.433,415.432,222.094,399.881,156.039z"/>
<path style="fill:#27D1CF;" d="M345.93,345.942c-17.588,17.588-37.599,31.266-58.96,41.025
	c-55.38,25.339-119.841,24.393-174.554-2.809c-19.152-9.518-37.106-22.259-53.062-38.216
	c-21.864-21.864-37.685-47.493-47.474-74.792c-25.619-71.509-9.798-154.514,47.473-211.785c21.43-21.43,46.469-37.068,73.15-46.894
	C204.379-13.979,288.234,1.65,345.94,59.355c27.627,27.627,45.61,61.248,53.941,96.684
	C415.432,222.094,397.439,294.433,345.93,345.942z"/>
<g>
	<path id="SVGCleanerId_0_1_" style="fill:#13BFBE;" d="M399.881,156.039c-8.331-35.437-26.314-69.057-53.941-96.684
		c21.04,21.04,34.737,46.646,41.081,73.635c11.844,50.308-1.86,105.401-41.089,144.63c-13.395,13.395-28.635,23.812-44.904,31.245
		c-42.176,19.298-91.271,18.578-132.94-2.139c-14.586-7.248-28.26-16.952-40.412-29.106c-16.651-16.652-28.701-36.17-36.156-56.961
		c-19.511-54.461-7.462-117.678,36.156-161.297c16.32-16.32,35.391-28.23,55.711-35.715c54.74-20.144,118.604-8.241,162.553,35.707
		C288.233,1.649,204.378-13.98,132.502,12.47c-26.68,9.827-51.72,25.465-73.15,46.894C2.081,116.635-13.741,199.64,11.879,271.15
		c9.788,27.299,25.609,52.927,47.473,74.792c15.957,15.957,33.911,28.698,53.062,38.216c54.713,27.202,119.176,28.148,174.554,2.809
		c21.362-9.759,41.373-23.437,58.96-41.025C397.439,294.433,415.432,222.094,399.881,156.039z"/>
</g>
<g>
	<path style="fill:#FFC772;" d="M112.416,384.158c-19.152-9.518-37.106-22.259-53.062-38.216
		c-21.864-21.864-37.685-47.493-47.474-74.792c34.075-9.113,88.875-25.687,104.629-66.943C136.78,151.115,24.4,122.04,59.354,59.364
		c21.43-21.43,46.469-37.068,73.15-46.894c19.567,0.898,37.289,10.165,47.714,23.776c0,0,53.091,49.23,28.959,96.53
		s-72.397,55.022-70.467,91.703s53.091,41.508,28.959,90.738C153.662,343.798,129.887,368.481,112.416,384.158z"/>
	<path style="fill:#FFC772;" d="M345.93,345.942c-17.588,17.588-37.599,31.266-58.96,41.025c-4.971-23.64-9.682-54.877-3.465-67.889
		c10.618-22.202,60.814-16.41,69.501-54.057c8.687-37.647-33.786-49.23-29.924-72.397c3.862-23.166,76.799-36.585,76.799-36.585
		C415.432,222.094,397.439,294.433,345.93,345.942z"/>
</g>
<g>
	<path style="fill:#EDAB49;" d="M132.509,12.468c15.36,0.705,29.583,6.573,40.035,15.654c-16.251,7.445-31.484,17.857-44.865,31.239
		c-22.452,22.452-36.539,50.097-42.269,79.062c-22.286-22.658-44.345-46.256-26.057-79.062
		C80.787,37.937,105.824,22.293,132.509,12.468z"/>
	<path style="fill:#EDAB49;" d="M168.087,306.726c0.891,0.441,1.793,0.882,2.694,1.303c-0.842,2.282-1.881,4.682-3.105,7.19
		c-14.008,28.584-37.782,53.261-55.258,68.943c-19.151-9.521-37.106-22.266-53.064-38.223
		c-21.864-21.865-37.684-47.491-47.471-74.792c24.861-6.652,60.773-17.27,84.479-38.566c7.454,16.32,17.888,31.611,31.318,45.041
		C139.825,289.769,153.501,299.476,168.087,306.726z"/>
	<path style="fill:#EDAB49;" d="M345.93,345.938c-17.584,17.593-37.596,31.269-58.961,41.025
		c-4.966-23.638-9.679-54.876-3.468-67.885c0.774-1.616,1.753-3.086,2.929-4.427c4.937-1.666,9.816-3.605,14.596-5.789
		c8.15-3.723,16.045-8.19,23.569-13.41c7.513-5.202,14.655-11.148,21.336-17.828c1.46-1.46,2.89-2.939,4.272-4.447
		c29.838-32.277,43.376-74.194,40.574-115.219c5.564-1.263,9.11-1.919,9.11-1.919C415.433,222.099,397.438,294.431,345.93,345.938z"
		/>
</g>
<g>
	<circle style="fill:#73DDE3;" cx="280.285" cy="105.609" r="35.263"/>
	<circle style="fill:#73DDE3;" cx="236.577" cy="50.146" r="17.999"/>
</g>
<g>
	<path style="fill:#5D6A89;" d="M39.691,305.904c-1.968,0-3.591-1.563-3.653-3.542c-0.066-2.111-0.1-4.258-0.1-6.384
		c0-2.02,1.637-3.657,3.657-3.657s3.657,1.637,3.657,3.657c0,2.05,0.032,4.121,0.096,6.154c0.064,2.019-1.521,3.706-3.541,3.77
		C39.768,305.903,39.729,305.904,39.691,305.904z"/>
	<path style="fill:#5D6A89;" d="M230.613,496.715c-0.038,0-0.075,0-0.114-0.001c-4.192-0.129-8.426-0.39-12.587-0.777
		c-2.011-0.187-3.49-1.97-3.303-3.981c0.188-2.01,1.968-3.485,3.981-3.302c4.01,0.373,8.092,0.626,12.133,0.749
		c2.019,0.062,3.605,1.748,3.543,3.767C234.207,495.15,232.582,496.715,230.613,496.715z M251.24,496.287
		c-1.899,0-3.505-1.468-3.644-3.393c-0.146-2.015,1.37-3.766,3.383-3.912c4.028-0.293,8.097-0.716,12.089-1.258
		c1.995-0.265,3.844,1.131,4.115,3.132c0.273,2.002-1.13,3.844-3.132,4.116c-4.143,0.563-8.364,1.002-12.545,1.305
		C251.418,496.284,251.329,496.287,251.24,496.287z M197.838,492.966c-0.239,0-0.48-0.023-0.722-0.071
		c-4.104-0.822-8.239-1.787-12.287-2.868c-1.951-0.521-3.111-2.526-2.59-4.476c0.52-1.951,2.522-3.114,4.477-2.59
		c3.899,1.041,7.881,1.971,11.836,2.762c1.98,0.397,3.264,2.324,2.867,4.304C201.072,491.764,199.546,492.966,197.838,492.966z
		 M283.831,491.158c-1.646,0-3.14-1.118-3.548-2.788c-0.481-1.961,0.72-3.941,2.681-4.422c3.924-0.96,7.861-2.058,11.707-3.263
		c1.923-0.606,3.98,0.469,4.583,2.397c0.604,1.928-0.469,3.979-2.397,4.583c-3.992,1.251-8.08,2.39-12.152,3.388
		C284.412,491.124,284.118,491.158,283.831,491.158z M166.142,483.783c-0.436,0-0.878-0.078-1.309-0.243
		c-3.901-1.496-7.811-3.14-11.618-4.884c-1.836-0.841-2.643-3.011-1.801-4.848c0.84-1.838,3.012-2.643,4.848-1.802
		c3.669,1.68,7.433,3.264,11.192,4.705c1.886,0.723,2.827,2.838,2.104,4.724C169,482.89,167.612,483.783,166.142,483.783z
		 M315.112,480.634c-1.414,0-2.76-0.824-3.357-2.204c-0.805-1.854,0.048-4.006,1.901-4.811c3.701-1.604,7.404-3.35,11.007-5.19
		c1.801-0.917,4.002-0.204,4.92,1.595c0.918,1.798,0.205,4.002-1.593,4.919c-3.74,1.909-7.584,3.722-11.426,5.386
		C316.09,480.536,315.596,480.634,315.112,480.634z M136.458,469.423c-0.633,0-1.276-0.164-1.859-0.51
		c-3.598-2.129-7.18-4.404-10.645-6.762c-1.67-1.136-2.103-3.411-0.967-5.081c1.136-1.67,3.412-2.102,5.08-0.966
		c3.338,2.272,6.79,4.463,10.255,6.514c1.739,1.028,2.313,3.272,1.284,5.01C138.925,468.782,137.707,469.423,136.458,469.423z
		 M344.194,465.007c-1.195,0-2.368-0.586-3.069-1.662c-1.102-1.693-0.623-3.958,1.07-5.06c3.387-2.205,6.745-4.544,9.98-6.952
		c1.621-1.207,3.912-0.87,5.117,0.75c1.206,1.621,0.87,3.911-0.75,5.117c-3.357,2.499-6.842,4.926-10.357,7.214
		C345.57,464.814,344.878,465.007,344.194,465.007z M109.574,450.306c-0.834,0-1.673-0.283-2.359-0.864
		c-3.202-2.707-6.356-5.546-9.375-8.439c-1.459-1.397-1.507-3.713-0.11-5.17c1.399-1.459,3.714-1.508,5.171-0.11
		c2.908,2.787,5.949,5.523,9.035,8.133c1.542,1.304,1.736,3.611,0.432,5.155C111.646,449.865,110.614,450.306,109.574,450.306z
		 M370.255,444.755c-0.986,0-1.971-0.397-2.692-1.181c-1.368-1.486-1.273-3.799,0.214-5.167c2.973-2.736,5.894-5.599,8.685-8.509
		c1.399-1.46,3.715-1.505,5.171-0.109c1.458,1.398,1.506,3.714,0.109,5.171c-2.895,3.02-5.928,5.989-9.011,8.828
		C372.028,444.437,371.14,444.755,370.255,444.755z M86.235,426.985c-1.039,0-2.069-0.44-2.793-1.294
		c-2.706-3.196-5.347-6.52-7.849-9.879c-1.207-1.62-0.871-3.911,0.748-5.118c1.621-1.207,3.911-0.87,5.117,0.748
		c2.413,3.239,4.958,6.443,7.565,9.522c1.305,1.542,1.114,3.849-0.427,5.154C87.909,426.701,87.069,426.985,86.235,426.985z
		 M392.587,420.469c-0.784,0-1.574-0.251-2.24-0.769c-1.596-1.239-1.885-3.536-0.646-5.132c2.481-3.193,4.885-6.498,7.148-9.824
		c1.136-1.671,3.412-2.102,5.08-0.967c1.671,1.136,2.103,3.412,0.967,5.081c-2.348,3.452-4.844,6.883-7.418,10.197
		C394.758,419.984,393.678,420.469,392.587,420.469z M67.082,400.107c-1.248,0-2.464-0.639-3.148-1.791
		c-2.139-3.604-4.19-7.323-6.098-11.055c-0.92-1.798-0.207-4.002,1.591-4.92c1.799-0.918,4.001-0.207,4.92,1.591
		c1.839,3.596,3.815,7.181,5.875,10.652c1.03,1.738,0.458,3.981-1.279,5.011C68.359,399.942,67.716,400.107,67.082,400.107z
		 M410.575,392.82c-0.585,0-1.178-0.14-1.727-0.436c-1.779-0.956-2.447-3.173-1.491-4.953c1.907-3.551,3.726-7.208,5.406-10.87
		c0.843-1.836,3.016-2.643,4.849-1.799c1.836,0.842,2.642,3.012,1.8,4.849c-1.744,3.801-3.632,7.597-5.612,11.282
		C413.139,392.121,411.878,392.82,410.575,392.82z M52.676,370.403c-1.469,0-2.855-0.891-3.415-2.345
		c-1.504-3.909-2.904-7.923-4.16-11.931c-0.604-1.928,0.468-3.98,2.396-4.584c1.93-0.603,3.98,0.469,4.584,2.396
		c1.21,3.861,2.558,7.727,4.007,11.491c0.725,1.885-0.214,4.002-2.1,4.727C53.557,370.323,53.112,370.403,52.676,370.403z
		 M423.691,362.559c-0.387,0-0.78-0.062-1.166-0.192c-1.914-0.645-2.943-2.719-2.3-4.633c1.288-3.829,2.469-7.743,3.51-11.635
		c0.521-1.951,2.518-3.113,4.477-2.589c1.951,0.522,3.111,2.527,2.588,4.477c-1.079,4.042-2.306,8.105-3.643,12.079
		C426.643,361.594,425.218,362.559,423.691,362.559z M43.459,338.691c-1.706,0-3.233-1.2-3.582-2.937
		c-0.823-4.101-1.529-8.287-2.094-12.44c-0.273-2.001,1.128-3.844,3.129-4.117c1.988-0.272,3.845,1.127,4.117,3.131
		c0.544,4.002,1.225,8.034,2.019,11.986c0.398,1.98-0.885,3.908-2.865,4.306C43.94,338.667,43.698,338.691,43.459,338.691z
		 M431.544,330.513c-0.189,0-0.379-0.015-0.573-0.045c-1.995-0.313-3.358-2.186-3.045-4.181c0.628-3.985,1.135-8.044,1.509-12.059
		c0.189-2.01,1.964-3.484,3.982-3.302c2.011,0.188,3.489,1.97,3.301,3.981c-0.389,4.168-0.915,8.379-1.566,12.516
		C434.87,329.225,433.314,330.513,431.544,330.513z M433.932,297.599c-2.002,0-3.635-1.613-3.656-3.621
		c-0.041-4.04-0.208-8.13-0.5-12.159c-0.145-2.015,1.371-3.766,3.384-3.911c2.017-0.146,3.765,1.37,3.911,3.383
		c0.302,4.18,0.476,8.423,0.518,12.613c0.021,2.02-1.601,3.674-3.621,3.694C433.958,297.599,433.944,297.599,433.932,297.599z
		 M430.859,264.728c-1.738,0-3.28-1.243-3.595-3.015c-0.712-3.977-1.558-7.981-2.516-11.9c-0.481-1.961,0.721-3.941,2.682-4.421
		c1.959-0.48,3.941,0.721,4.421,2.683c0.996,4.068,1.875,8.222,2.612,12.351c0.355,1.988-0.969,3.888-2.956,4.243
		C431.289,264.709,431.072,264.728,430.859,264.728z M422.341,232.837c-1.499,0-2.904-0.928-3.441-2.42
		c-1.369-3.801-2.876-7.605-4.478-11.304c-0.805-1.853,0.047-4.006,1.9-4.811c1.854-0.804,4.007,0.047,4.811,1.901
		c1.666,3.84,3.23,7.789,4.65,11.736c0.684,1.901-0.302,3.996-2.202,4.68C423.17,232.767,422.751,232.837,422.341,232.837z
		 M408.589,202.832c-1.277,0-2.515-0.669-3.188-1.86c-1.984-3.515-4.106-7.012-6.308-10.395c-1.102-1.693-0.623-3.958,1.07-5.06
		c1.694-1.1,3.958-0.623,5.06,1.07c2.285,3.511,4.488,7.141,6.547,10.789c0.993,1.76,0.372,3.989-1.387,4.983
		C409.815,202.681,409.198,202.832,408.589,202.832z"/>
</g>
<path style="fill:#F9E7CD;" d="M442.561,357.313l-30.407,40.626l7.858,54.627c-7.471,6.238-15.297,12.058-23.448,17.439
	l-18.108-27.042l-11.337,15.151l3.845,26.687c-3.584,1.797-7.21,3.521-10.888,5.151l-8.84-13.197l0.01-0.021
	c-2.487,1.693-5.245,2.988-8.182,3.824c-5.256,1.484-10.501-2.435-10.553-7.899c-0.031-3.062,0.439-6.092,1.358-8.965l-29.299-9.362
	l4.148-5.538l38.546-5.538l11.807-15.778l-67.751-21.65l8.15-10.877l94.083-13.552l29.153-38.944
	c4.106-5.486,11.87-6.604,17.356-2.497C445.549,344.053,446.667,351.827,442.561,357.313z"/>
<path style="fill:#FF6954;" d="M431.536,100.466c-12.28-42.151-72.34-42.151-84.619,0c-1.576,5.409-2.421,11.131-2.421,17.05
	c0,28.026,18.947,51.624,44.731,58.693c25.783-7.069,44.731-30.666,44.731-58.693C433.957,111.597,433.112,105.876,431.536,100.466z
	"/>
<circle style="fill:#FFC772;" cx="389.226" cy="113.916" r="27.519"/>
<path style="fill:#EDAB49;" d="M373.684,113.92c0-13.142,9.213-24.13,21.531-26.864c-1.928-0.428-3.932-0.655-5.988-0.655
	c-15.199,0-27.52,12.321-27.52,27.519s12.321,27.521,27.52,27.521c2.057,0,4.06-0.228,5.988-0.655
	C382.896,138.051,373.684,127.062,373.684,113.92z"/>
<path style="fill:#F9E7CD;" d="M90.38,207.302c-12.28-42.151-72.34-42.151-84.619,0c-1.576,5.409-2.421,11.131-2.421,17.05
	c0,28.026,18.947,51.624,44.731,58.693c25.783-7.068,44.731-30.666,44.731-58.693C92.801,218.433,91.956,212.712,90.38,207.302z"/>
<circle style="fill:#FFC772;" cx="48.067" cy="220.757" r="27.519"/>
<path style="fill:#EDAB49;" d="M32.528,220.755c0-13.142,9.213-24.13,21.531-26.864c-1.928-0.428-3.932-0.655-5.988-0.655
	c-15.199,0-27.519,12.321-27.519,27.519c0,15.199,12.321,27.521,27.519,27.521c2.057,0,4.06-0.228,5.988-0.655
	C41.74,244.886,32.528,233.897,32.528,220.755z"/>
<g>
</g>
<g>
</g>
<g>
</g>
<g>
</g>
<g>
</g>
<g>
</g>
<g>
</g>
<g>
</g>
<g>
</g>
<g>
</g>
<g>
</g>
<g>
</g>
<g>
</g>
<g>
</g>
<g>
</g>
</svg>
